<svg version="1.0" xmlns="http://www.w3.org/2000/svg" width="682.667" height="682.667" viewBox="0 0 512 512"><path d="M234.8 134.7c-6.6 26.4-16.8 69.3-16.8 70.5 0 .5 8.6.8 19 .8h19v49h-8c-7.3 0-8 .2-8 2 0 1.9.7 2 18.9 2 15.5 0 19-.3 19.4-1.4.5-1.1 1.8-1.3 5.9-.9 5.9.6 27.4-1.2 32.9-2.7 4.2-1.2 7.9-4.4 7.9-6.8-.1-1.3-.6-1-2.1 1-3.7 5-9.6 6.1-36.6 6.6l-24.3.4V206h19c10.8 0 19-.4 19-.9 0-1.2-3.4-15.5-16.6-70.4l-3.6-14.7h-41.4l-3.6 14.7zm44.1-10.5c.5 1.3 3.3 12.2 6.1 24.3 2.9 12.1 7 29.3 9.1 38.2 2.1 9 3.9 16.5 3.9 16.8 0 .3-17.5.5-39 .5-21.6 0-39-.4-39-.9s3.1-13.8 7-29.7c3.8-15.9 7.9-33 9-37.9 3.5-15 .9-13.5 23-13.5 18.8 0 19.1 0 19.9 2.2z"/><path d="M324.4 234.5c-.7 1.9-1.3 4.9-1.3 6.7l.1 3.3.7-3.7c.4-2 1.5-4.8 2.4-6.2 2-3 2.1-3.6.6-3.6-.5 0-1.7 1.6-2.5 3.5zm-199.4 70c0 14.4.4 23.5 1 23.5.5 0 1.1-3.9 1.2-8.8l.3-8.7h32l.3 8.7c.1 4.9.7 8.8 1.2 8.8.6 0 1-9.1 1-23.5 0-14.5-.4-23.5-1-23.5-.5 0-1.1 5.7-1.2 13.7l-.3 13.8h-32l-.3-13.8c-.1-8-.7-13.7-1.2-13.7-.6 0-1 9-1 23.5zm166 0V328l8.8-.2 8.7-.2-7.7-.3-7.8-.4V304c0-14.7-.4-23-1-23s-1 8.5-1 23.5zm83.4 0c0 14.5.2 20.1.5 14 .7-11 1.7-13.7 6.1-16 5.4-2.8 12.5-1 15.2 3.8.7 1.2 1.5 6.7 1.9 12.2l.7 10-.2-10.9-.2-10.8-3.7-3.4c-2.9-2.7-4.5-3.4-7.8-3.4-4.3 0-7.9 1.4-9.2 3.6-1.9 3.3-2.7.6-3-10.9-.1-6.7-.3-1.4-.3 11.8zM318 291.6c0 .9.5 1.4 1.2 1.2 1.8-.6 2.1-2.8.4-2.8-.9 0-1.6.7-1.6 1.6zm-133.5 8.1c-6.4 1.7-10.5 7.6-10.5 15.2 0 3.9.6 5.6 2.6 8.1 7.1 8.4 18 7.9 24.6-1.1 4.3-5.7 1.7-16.3-4.7-20-3.4-2-9-3-12-2.2zm10.2 3.3c4.5 2.7 6.6 6.4 6.5 11.5-.1 7.5-5.2 12.5-12.7 12.5-7.7 0-12.5-5.1-12.5-13.2 0-5 1.9-8.1 6.4-10.9 4-2.4 8.3-2.4 12.3.1zm29.9-3c-1.6.5-4.2 2.1-5.7 3.6l-2.9 2.8v-3.2c0-1.8-.4-3.2-1-3.2s-1 7.5-1 20.5.4 20.5 1 20.5 1-3.7 1-9.1v-9l3.5 2.7c6.8 5.2 16.9 3.9 21.8-2.8 1.1-1.4 2.2-4.8 2.4-7.5.4-3.9 0-5.5-1.9-8.2-4.4-6.4-10.8-9.1-17.2-7.1zm9.9 2.4c5.1 2.2 7.7 6.9 7.2 13-.4 4.2-1 5.5-4.1 8.3-3 2.8-4.3 3.3-8.6 3.3s-5.6-.5-8.6-3.3c-6.6-6-5.3-16.6 2.7-20.9 4.1-2.2 6.8-2.3 11.4-.4zm29.2-2c-5.1 1.9-7.3 4-9.2 9.1-3.6 9.3 3.8 19.5 14.2 19.5 3.8 0 10.3-3.1 10.3-5 0-.5-1.5-.1-3.2 1-4.5 2.7-11.8 2.5-15.6-.5-.1-.1 4-4.4 9.3-9.5 5.2-5.2 9.5-9.9 9.5-10.5 0-1.4-4.7-4.1-8.5-4.9-1.6-.3-4.7.1-6.8.8zm10 2.1l3.7 1.6-9.4 9.4c-5.1 5.2-9.7 9.2-10.2 8.9-1.4-.9-3.1-8.2-2.4-10.7.3-1.4 1.8-4 3.3-5.7 4.3-5.1 8.6-6.1 15-3.5zM318 314c0 8.7.4 14 1 14s1-5.3 1-14-.4-14-1-14-1 5.3-1 14zm18.4-9.6c-3.9 3.9-4.4 4.8-4.4 9 0 7.9 4.6 13.9 11.7 15.2 4.3.8 10.4-.9 12.8-3.6 1-1.1 2.3-2 2.8-2 1.4 0 0 8.9-1.8 11.7-3.8 5.7-13.2 6.8-19.5 2.3-1.9-1.3-3.1-1.8-2.8-1 .7 2.3 7.1 5 11.8 5 2.7 0 5.8-.8 7.8-2 5.3-3.3 6.2-6.8 6-24.2 0-8.4-.3-13.8-.5-12.1-.4 3.4-1.6 4.2-3 2-1.8-3-5.9-4.7-11.2-4.7-5 0-5.7.3-9.7 4.4zm18.7.2c7.6 7.3 5.1 19.2-4.8 22.5-9.7 3.2-20.2-7.7-16.3-17 1.2-3 5.4-7.4 8-8.4 3.4-1.4 10.1.1 13.1 2.9zm55.9-3.7c0 .8 7.9.3 8.9-.5.2-.2-1.7-.4-4.2-.4-2.6 0-4.7.4-4.7.9zm.1 20.2c-.1 2.3 5.4 7.2 7.6 6.6 1.6-.4 1.5-.5-.3-.6-2.1-.1-5.7-3.4-6.7-6.1-.5-1.3-.6-1.3-.6.1zm-151.7 38.2c-.3.8-.4 4.9-.2 9.3.2 6.2.6 7.9 1.8 7.9 1.2 0 1.6-1.8 1.8-9.3.2-7.8 0-9.2-1.3-9.2-.9 0-1.8.6-2.1 1.3zM232 368v9h3.4c6.2 0 9.7-1.2 10.8-3.6.9-1.9.8-2.8-.7-4.4-1.4-1.6-1.6-2.3-.7-3.2 1.8-1.8 1.4-4.6-.7-5.8-1.1-.5-4.2-1-7-1H232v9zm9.5-4.5c0 1.4-.8 2.1-2.7 2.3-2.4.3-2.8 0-2.8-2.3s.4-2.6 2.8-2.3c1.9.2 2.7.9 2.7 2.3zm1 8c0 1.5-.8 2.1-3.2 2.3-3 .3-3.3.1-3.3-2.3s.3-2.6 3.3-2.3c2.4.2 3.2.8 3.2 2.3zm35-7.1c-1.4 1-2 2.6-2 5.6 0 4.8 2.1 7 6.7 7 5.9 0 9.3-8.5 5-12.3-2.3-2.1-7.1-2.2-9.7-.3zm7.5 2.6c.6 1.1.8 3.1.4 4.4-1.2 5-6.4 3.9-6.4-1.3 0-4.8 4-6.8 6-3.1zm18.2-2.4c-1.6 1.1-2.2 2.5-2.2 5.3 0 5 2.7 7.6 7.1 6.7 2.6-.5 3-.3 2.5 1-.3.9-.6 1.8-.6 2 0 .2-1.8.4-4 .4-4 0-5.3 1.3-2.4 2.4 2.7 1 5.9.7 8.2-1 1.9-1.3 2.2-2.4 2.2-8.8 0-4.3-.5-7.7-1.2-8.4-1.7-1.7-6.9-1.5-9.6.4zm7.4 2.8c.9 3.9.1 7-2 7.4-3.8.8-6-5.2-3-8.2 2.2-2.3 4.3-2 5 .8z"/></svg>